<mxfile host="Electron" agent="Mozilla/5.0 (Windows NT 10.0; Win64; x64) AppleWebKit/537.36 (KHTML, like Gecko) draw.io/24.7.17 Chrome/128.0.6613.36 Electron/32.0.1 Safari/537.36" version="24.7.17" pages="2">
  <diagram name="Страница — 1" id="uTKht3Ufi8tJSBMcjWbj">
    <mxGraphModel dx="2261" dy="844" grid="1" gridSize="10" guides="1" tooltips="1" connect="1" arrows="1" fold="1" page="1" pageScale="1" pageWidth="827" pageHeight="1169" math="0" shadow="0">
      <root>
        <mxCell id="0" />
        <mxCell id="1" parent="0" />
        <mxCell id="r8_55KgaOgXDHcUJZC14-15" value="Фильм" style="swimlane;fontStyle=0;childLayout=stackLayout;horizontal=1;startSize=30;horizontalStack=0;resizeParent=1;resizeParentMax=0;resizeLast=0;collapsible=1;marginBottom=0;whiteSpace=wrap;html=1;" parent="1" vertex="1">
          <mxGeometry x="-447" y="440" width="235" height="300" as="geometry" />
        </mxCell>
        <mxCell id="r8_55KgaOgXDHcUJZC14-16" value="Код (PK) int" style="text;strokeColor=none;fillColor=none;align=left;verticalAlign=middle;spacingLeft=4;spacingRight=4;overflow=hidden;points=[[0,0.5],[1,0.5]];portConstraint=eastwest;rotatable=0;whiteSpace=wrap;html=1;" parent="r8_55KgaOgXDHcUJZC14-15" vertex="1">
          <mxGeometry y="30" width="235" height="30" as="geometry" />
        </mxCell>
        <mxCell id="r8_55KgaOgXDHcUJZC14-17" value="Название nvarchar(100)" style="text;strokeColor=none;fillColor=none;align=left;verticalAlign=middle;spacingLeft=4;spacingRight=4;overflow=hidden;points=[[0,0.5],[1,0.5]];portConstraint=eastwest;rotatable=0;whiteSpace=wrap;html=1;" parent="r8_55KgaOgXDHcUJZC14-15" vertex="1">
          <mxGeometry y="60" width="235" height="30" as="geometry" />
        </mxCell>
        <mxCell id="r8_55KgaOgXDHcUJZC14-18" value="Длительность smallint: 90" style="text;strokeColor=none;fillColor=none;align=left;verticalAlign=middle;spacingLeft=4;spacingRight=4;overflow=hidden;points=[[0,0.5],[1,0.5]];portConstraint=eastwest;rotatable=0;whiteSpace=wrap;html=1;" parent="r8_55KgaOgXDHcUJZC14-15" vertex="1">
          <mxGeometry y="90" width="235" height="30" as="geometry" />
        </mxCell>
        <mxCell id="wHLfdhWBH0zgHA5qeWjd-1" value="Год выхода smallint: Year(GetDate())" style="text;strokeColor=none;fillColor=none;align=left;verticalAlign=middle;spacingLeft=4;spacingRight=4;overflow=hidden;points=[[0,0.5],[1,0.5]];portConstraint=eastwest;rotatable=0;whiteSpace=wrap;html=1;" parent="r8_55KgaOgXDHcUJZC14-15" vertex="1">
          <mxGeometry y="120" width="235" height="30" as="geometry" />
        </mxCell>
        <mxCell id="rfza4wkIlq2GZ2fTbnun-22" value="Описание nvarchar(500) NULL" style="text;strokeColor=none;fillColor=none;align=left;verticalAlign=middle;spacingLeft=4;spacingRight=4;overflow=hidden;points=[[0,0.5],[1,0.5]];portConstraint=eastwest;rotatable=0;whiteSpace=wrap;html=1;" parent="r8_55KgaOgXDHcUJZC14-15" vertex="1">
          <mxGeometry y="150" width="235" height="30" as="geometry" />
        </mxCell>
        <mxCell id="rfza4wkIlq2GZ2fTbnun-27" value="Постер varbinary(max) NULL" style="text;strokeColor=none;fillColor=none;align=left;verticalAlign=middle;spacingLeft=4;spacingRight=4;overflow=hidden;points=[[0,0.5],[1,0.5]];portConstraint=eastwest;rotatable=0;whiteSpace=wrap;html=1;" parent="r8_55KgaOgXDHcUJZC14-15" vertex="1">
          <mxGeometry y="180" width="235" height="30" as="geometry" />
        </mxCell>
        <mxCell id="rfza4wkIlq2GZ2fTbnun-26" value="Возрастной рейтинг&amp;nbsp;varchar(10) NULL" style="text;strokeColor=none;fillColor=none;align=left;verticalAlign=middle;spacingLeft=4;spacingRight=4;overflow=hidden;points=[[0,0.5],[1,0.5]];portConstraint=eastwest;rotatable=0;whiteSpace=wrap;html=1;" parent="r8_55KgaOgXDHcUJZC14-15" vertex="1">
          <mxGeometry y="210" width="235" height="30" as="geometry" />
        </mxCell>
        <mxCell id="rfza4wkIlq2GZ2fTbnun-23" value="Начало проката date NULL" style="text;strokeColor=none;fillColor=none;align=left;verticalAlign=middle;spacingLeft=4;spacingRight=4;overflow=hidden;points=[[0,0.5],[1,0.5]];portConstraint=eastwest;rotatable=0;whiteSpace=wrap;html=1;" parent="r8_55KgaOgXDHcUJZC14-15" vertex="1">
          <mxGeometry y="240" width="235" height="30" as="geometry" />
        </mxCell>
        <mxCell id="rfza4wkIlq2GZ2fTbnun-24" value="Конец проката date NULL" style="text;strokeColor=none;fillColor=none;align=left;verticalAlign=middle;spacingLeft=4;spacingRight=4;overflow=hidden;points=[[0,0.5],[1,0.5]];portConstraint=eastwest;rotatable=0;whiteSpace=wrap;html=1;" parent="r8_55KgaOgXDHcUJZC14-15" vertex="1">
          <mxGeometry y="270" width="235" height="30" as="geometry" />
        </mxCell>
        <mxCell id="r8_55KgaOgXDHcUJZC14-19" value="Зал" style="swimlane;fontStyle=0;childLayout=stackLayout;horizontal=1;startSize=30;horizontalStack=0;resizeParent=1;resizeParentMax=0;resizeLast=0;collapsible=1;marginBottom=0;whiteSpace=wrap;html=1;" parent="1" vertex="1">
          <mxGeometry x="-160" y="670" width="200" height="210" as="geometry" />
        </mxCell>
        <mxCell id="r8_55KgaOgXDHcUJZC14-20" value="Код (PK) tinyint" style="text;strokeColor=none;fillColor=none;align=left;verticalAlign=middle;spacingLeft=4;spacingRight=4;overflow=hidden;points=[[0,0.5],[1,0.5]];portConstraint=eastwest;rotatable=0;whiteSpace=wrap;html=1;" parent="r8_55KgaOgXDHcUJZC14-19" vertex="1">
          <mxGeometry y="30" width="200" height="30" as="geometry" />
        </mxCell>
        <mxCell id="rfza4wkIlq2GZ2fTbnun-37" value="Кинотеатр nvarchar(50): Макси" style="text;strokeColor=none;fillColor=none;align=left;verticalAlign=middle;spacingLeft=4;spacingRight=4;overflow=hidden;points=[[0,0.5],[1,0.5]];portConstraint=eastwest;rotatable=0;whiteSpace=wrap;html=1;" parent="r8_55KgaOgXDHcUJZC14-19" vertex="1">
          <mxGeometry y="60" width="200" height="30" as="geometry" />
        </mxCell>
        <mxCell id="rfza4wkIlq2GZ2fTbnun-50" value="Номер зала tinyint" style="text;strokeColor=none;fillColor=none;align=left;verticalAlign=middle;spacingLeft=4;spacingRight=4;overflow=hidden;points=[[0,0.5],[1,0.5]];portConstraint=eastwest;rotatable=0;whiteSpace=wrap;html=1;" parent="r8_55KgaOgXDHcUJZC14-19" vertex="1">
          <mxGeometry y="90" width="200" height="30" as="geometry" />
        </mxCell>
        <mxCell id="rfza4wkIlq2GZ2fTbnun-20" value="Количество рядов tinyint" style="text;strokeColor=none;fillColor=none;align=left;verticalAlign=middle;spacingLeft=4;spacingRight=4;overflow=hidden;points=[[0,0.5],[1,0.5]];portConstraint=eastwest;rotatable=0;whiteSpace=wrap;html=1;" parent="r8_55KgaOgXDHcUJZC14-19" vertex="1">
          <mxGeometry y="120" width="200" height="30" as="geometry" />
        </mxCell>
        <mxCell id="rfza4wkIlq2GZ2fTbnun-21" value="Количество мест в ряду tinyint" style="text;strokeColor=none;fillColor=none;align=left;verticalAlign=middle;spacingLeft=4;spacingRight=4;overflow=hidden;points=[[0,0.5],[1,0.5]];portConstraint=eastwest;rotatable=0;whiteSpace=wrap;html=1;" parent="r8_55KgaOgXDHcUJZC14-19" vertex="1">
          <mxGeometry y="150" width="200" height="30" as="geometry" />
        </mxCell>
        <mxCell id="wHLfdhWBH0zgHA5qeWjd-2" value="VIP bit: 0" style="text;strokeColor=none;fillColor=none;align=left;verticalAlign=middle;spacingLeft=4;spacingRight=4;overflow=hidden;points=[[0,0.5],[1,0.5]];portConstraint=eastwest;rotatable=0;whiteSpace=wrap;html=1;" parent="r8_55KgaOgXDHcUJZC14-19" vertex="1">
          <mxGeometry y="180" width="200" height="30" as="geometry" />
        </mxCell>
        <mxCell id="r8_55KgaOgXDHcUJZC14-23" value="Билет" style="swimlane;fontStyle=0;childLayout=stackLayout;horizontal=1;startSize=30;horizontalStack=0;resizeParent=1;resizeParentMax=0;resizeLast=0;collapsible=1;marginBottom=0;whiteSpace=wrap;html=1;" parent="1" vertex="1">
          <mxGeometry x="190" y="420" width="160" height="180" as="geometry" />
        </mxCell>
        <mxCell id="r8_55KgaOgXDHcUJZC14-24" value="Номер (PK) int" style="text;strokeColor=none;fillColor=none;align=left;verticalAlign=middle;spacingLeft=4;spacingRight=4;overflow=hidden;points=[[0,0.5],[1,0.5]];portConstraint=eastwest;rotatable=0;whiteSpace=wrap;html=1;" parent="r8_55KgaOgXDHcUJZC14-23" vertex="1">
          <mxGeometry y="30" width="160" height="30" as="geometry" />
        </mxCell>
        <mxCell id="rfza4wkIlq2GZ2fTbnun-6" value="Код сеанса (FK1) int" style="text;strokeColor=none;fillColor=none;align=left;verticalAlign=middle;spacingLeft=4;spacingRight=4;overflow=hidden;points=[[0,0.5],[1,0.5]];portConstraint=eastwest;rotatable=0;whiteSpace=wrap;html=1;" parent="r8_55KgaOgXDHcUJZC14-23" vertex="1">
          <mxGeometry y="60" width="160" height="30" as="geometry" />
        </mxCell>
        <mxCell id="rfza4wkIlq2GZ2fTbnun-32" value="Код посетителя (FK2) int" style="text;strokeColor=none;fillColor=none;align=left;verticalAlign=middle;spacingLeft=4;spacingRight=4;overflow=hidden;points=[[0,0.5],[1,0.5]];portConstraint=eastwest;rotatable=0;whiteSpace=wrap;html=1;" parent="r8_55KgaOgXDHcUJZC14-23" vertex="1">
          <mxGeometry y="90" width="160" height="30" as="geometry" />
        </mxCell>
        <mxCell id="rfza4wkIlq2GZ2fTbnun-7" value="Ряд tinyint" style="text;strokeColor=none;fillColor=none;align=left;verticalAlign=middle;spacingLeft=4;spacingRight=4;overflow=hidden;points=[[0,0.5],[1,0.5]];portConstraint=eastwest;rotatable=0;whiteSpace=wrap;html=1;" parent="r8_55KgaOgXDHcUJZC14-23" vertex="1">
          <mxGeometry y="120" width="160" height="30" as="geometry" />
        </mxCell>
        <mxCell id="r8_55KgaOgXDHcUJZC14-28" value="Место tinyint" style="text;strokeColor=none;fillColor=none;align=left;verticalAlign=middle;spacingLeft=4;spacingRight=4;overflow=hidden;points=[[0,0.5],[1,0.5]];portConstraint=eastwest;rotatable=0;whiteSpace=wrap;html=1;" parent="r8_55KgaOgXDHcUJZC14-23" vertex="1">
          <mxGeometry y="150" width="160" height="30" as="geometry" />
        </mxCell>
        <mxCell id="rfza4wkIlq2GZ2fTbnun-1" value="Сеанс" style="swimlane;fontStyle=0;childLayout=stackLayout;horizontal=1;startSize=30;horizontalStack=0;resizeParent=1;resizeParentMax=0;resizeLast=0;collapsible=1;marginBottom=0;whiteSpace=wrap;html=1;" parent="1" vertex="1">
          <mxGeometry x="-160" y="414" width="270" height="210" as="geometry" />
        </mxCell>
        <mxCell id="rfza4wkIlq2GZ2fTbnun-2" value="Код (PK) int" style="text;strokeColor=none;fillColor=none;align=left;verticalAlign=middle;spacingLeft=4;spacingRight=4;overflow=hidden;points=[[0,0.5],[1,0.5]];portConstraint=eastwest;rotatable=0;whiteSpace=wrap;html=1;" parent="rfza4wkIlq2GZ2fTbnun-1" vertex="1">
          <mxGeometry y="30" width="270" height="30" as="geometry" />
        </mxCell>
        <mxCell id="rfza4wkIlq2GZ2fTbnun-3" value="Код фильма (FK1) int" style="text;strokeColor=none;fillColor=none;align=left;verticalAlign=middle;spacingLeft=4;spacingRight=4;overflow=hidden;points=[[0,0.5],[1,0.5]];portConstraint=eastwest;rotatable=0;whiteSpace=wrap;html=1;" parent="rfza4wkIlq2GZ2fTbnun-1" vertex="1">
          <mxGeometry y="60" width="270" height="30" as="geometry" />
        </mxCell>
        <mxCell id="rfza4wkIlq2GZ2fTbnun-4" value="Код зала (FK2) tinyint" style="text;strokeColor=none;fillColor=none;align=left;verticalAlign=middle;spacingLeft=4;spacingRight=4;overflow=hidden;points=[[0,0.5],[1,0.5]];portConstraint=eastwest;rotatable=0;whiteSpace=wrap;html=1;" parent="rfza4wkIlq2GZ2fTbnun-1" vertex="1">
          <mxGeometry y="90" width="270" height="30" as="geometry" />
        </mxCell>
        <mxCell id="rfza4wkIlq2GZ2fTbnun-8" value="Цена decimal(4,0): 200" style="text;strokeColor=none;fillColor=none;align=left;verticalAlign=middle;spacingLeft=4;spacingRight=4;overflow=hidden;points=[[0,0.5],[1,0.5]];portConstraint=eastwest;rotatable=0;whiteSpace=wrap;html=1;" parent="rfza4wkIlq2GZ2fTbnun-1" vertex="1">
          <mxGeometry y="120" width="270" height="30" as="geometry" />
        </mxCell>
        <mxCell id="rfza4wkIlq2GZ2fTbnun-17" value="Дата и время начала datetime2: GetDate()" style="text;strokeColor=none;fillColor=none;align=left;verticalAlign=middle;spacingLeft=4;spacingRight=4;overflow=hidden;points=[[0,0.5],[1,0.5]];portConstraint=eastwest;rotatable=0;whiteSpace=wrap;html=1;" parent="rfza4wkIlq2GZ2fTbnun-1" vertex="1">
          <mxGeometry y="150" width="270" height="30" as="geometry" />
        </mxCell>
        <mxCell id="rfza4wkIlq2GZ2fTbnun-34" value="3D bit: 0" style="text;strokeColor=none;fillColor=none;align=left;verticalAlign=middle;spacingLeft=4;spacingRight=4;overflow=hidden;points=[[0,0.5],[1,0.5]];portConstraint=eastwest;rotatable=0;whiteSpace=wrap;html=1;" parent="rfza4wkIlq2GZ2fTbnun-1" vertex="1">
          <mxGeometry y="180" width="270" height="30" as="geometry" />
        </mxCell>
        <mxCell id="rfza4wkIlq2GZ2fTbnun-9" value="Посетитель" style="swimlane;fontStyle=0;childLayout=stackLayout;horizontal=1;startSize=30;horizontalStack=0;resizeParent=1;resizeParentMax=0;resizeLast=0;collapsible=1;marginBottom=0;whiteSpace=wrap;html=1;" parent="1" vertex="1">
          <mxGeometry x="180" y="680" width="200" height="180" as="geometry" />
        </mxCell>
        <mxCell id="rfza4wkIlq2GZ2fTbnun-28" value="Код (PK) int" style="text;strokeColor=none;fillColor=none;align=left;verticalAlign=middle;spacingLeft=4;spacingRight=4;overflow=hidden;points=[[0,0.5],[1,0.5]];portConstraint=eastwest;rotatable=0;whiteSpace=wrap;html=1;" parent="rfza4wkIlq2GZ2fTbnun-9" vertex="1">
          <mxGeometry y="30" width="200" height="30" as="geometry" />
        </mxCell>
        <mxCell id="rfza4wkIlq2GZ2fTbnun-10" value="Номер телефона char(10)" style="text;strokeColor=none;fillColor=none;align=left;verticalAlign=middle;spacingLeft=4;spacingRight=4;overflow=hidden;points=[[0,0.5],[1,0.5]];portConstraint=eastwest;rotatable=0;whiteSpace=wrap;html=1;" parent="rfza4wkIlq2GZ2fTbnun-9" vertex="1">
          <mxGeometry y="60" width="200" height="30" as="geometry" />
        </mxCell>
        <mxCell id="rfza4wkIlq2GZ2fTbnun-12" value="Имя nvarchar(50) NULL" style="text;strokeColor=none;fillColor=none;align=left;verticalAlign=middle;spacingLeft=4;spacingRight=4;overflow=hidden;points=[[0,0.5],[1,0.5]];portConstraint=eastwest;rotatable=0;whiteSpace=wrap;html=1;" parent="rfza4wkIlq2GZ2fTbnun-9" vertex="1">
          <mxGeometry y="90" width="200" height="30" as="geometry" />
        </mxCell>
        <mxCell id="rfza4wkIlq2GZ2fTbnun-25" value="Дата рождения datetime2 NULL" style="text;strokeColor=none;fillColor=none;align=left;verticalAlign=middle;spacingLeft=4;spacingRight=4;overflow=hidden;points=[[0,0.5],[1,0.5]];portConstraint=eastwest;rotatable=0;whiteSpace=wrap;html=1;" parent="rfza4wkIlq2GZ2fTbnun-9" vertex="1">
          <mxGeometry y="120" width="200" height="30" as="geometry" />
        </mxCell>
        <mxCell id="rfza4wkIlq2GZ2fTbnun-29" value="E-mail varchar(150) NULL" style="text;strokeColor=none;fillColor=none;align=left;verticalAlign=middle;spacingLeft=4;spacingRight=4;overflow=hidden;points=[[0,0.5],[1,0.5]];portConstraint=eastwest;rotatable=0;whiteSpace=wrap;html=1;" parent="rfza4wkIlq2GZ2fTbnun-9" vertex="1">
          <mxGeometry y="150" width="200" height="30" as="geometry" />
        </mxCell>
        <mxCell id="rfza4wkIlq2GZ2fTbnun-39" value="" style="fontSize=12;html=1;endArrow=ERzeroToMany;startArrow=ERmandOne;rounded=0;exitX=0.407;exitY=0.002;exitDx=0;exitDy=0;dashed=1;startFill=0;exitPerimeter=0;entryX=0.461;entryY=1.002;entryDx=0;entryDy=0;entryPerimeter=0;" parent="1" source="rfza4wkIlq2GZ2fTbnun-9" target="r8_55KgaOgXDHcUJZC14-28" edge="1">
          <mxGeometry width="100" height="100" relative="1" as="geometry">
            <mxPoint x="-105" y="590" as="sourcePoint" />
            <mxPoint x="215" y="390" as="targetPoint" />
          </mxGeometry>
        </mxCell>
        <mxCell id="rfza4wkIlq2GZ2fTbnun-42" value="" style="fontSize=12;html=1;endArrow=ERzeroToMany;startArrow=ERmandOne;rounded=0;dashed=1;entryX=0;entryY=0.5;entryDx=0;entryDy=0;startFill=0;exitX=0.999;exitY=0.644;exitDx=0;exitDy=0;exitPerimeter=0;" parent="1" source="rfza4wkIlq2GZ2fTbnun-3" target="rfza4wkIlq2GZ2fTbnun-6" edge="1">
          <mxGeometry width="100" height="100" relative="1" as="geometry">
            <mxPoint x="40" y="480" as="sourcePoint" />
            <mxPoint x="30" y="390" as="targetPoint" />
          </mxGeometry>
        </mxCell>
        <mxCell id="rfza4wkIlq2GZ2fTbnun-43" value="" style="fontSize=12;html=1;endArrow=ERzeroToMany;startArrow=ERmandOne;rounded=0;exitX=1;exitY=0.5;exitDx=0;exitDy=0;edgeStyle=orthogonalEdgeStyle;dashed=1;entryX=0;entryY=0.5;entryDx=0;entryDy=0;startFill=0;" parent="1" source="r8_55KgaOgXDHcUJZC14-16" target="rfza4wkIlq2GZ2fTbnun-3" edge="1">
          <mxGeometry width="100" height="100" relative="1" as="geometry">
            <mxPoint x="-273" y="330" as="sourcePoint" />
            <mxPoint x="-200" y="410" as="targetPoint" />
          </mxGeometry>
        </mxCell>
        <mxCell id="rfza4wkIlq2GZ2fTbnun-49" value="" style="fontSize=12;html=1;endArrow=ERzeroToMany;startArrow=ERmandOne;rounded=0;exitX=0.5;exitY=0;exitDx=0;exitDy=0;edgeStyle=orthogonalEdgeStyle;dashed=1;startFill=0;" parent="1" source="r8_55KgaOgXDHcUJZC14-19" edge="1">
          <mxGeometry width="100" height="100" relative="1" as="geometry">
            <mxPoint x="-10" y="465" as="sourcePoint" />
            <mxPoint x="-60" y="620" as="targetPoint" />
          </mxGeometry>
        </mxCell>
        <mxCell id="h28ZoQ1r3luXA5jQ2LoP-1" value="Жанр" style="swimlane;fontStyle=0;childLayout=stackLayout;horizontal=1;startSize=30;horizontalStack=0;resizeParent=1;resizeParentMax=0;resizeLast=0;collapsible=1;marginBottom=0;whiteSpace=wrap;html=1;" parent="1" vertex="1">
          <mxGeometry x="-686" y="440" width="200" height="90" as="geometry" />
        </mxCell>
        <mxCell id="h28ZoQ1r3luXA5jQ2LoP-2" value="Код (PK) int" style="text;strokeColor=none;fillColor=none;align=left;verticalAlign=middle;spacingLeft=4;spacingRight=4;overflow=hidden;points=[[0,0.5],[1,0.5]];portConstraint=eastwest;rotatable=0;whiteSpace=wrap;html=1;" parent="h28ZoQ1r3luXA5jQ2LoP-1" vertex="1">
          <mxGeometry y="30" width="200" height="30" as="geometry" />
        </mxCell>
        <mxCell id="h28ZoQ1r3luXA5jQ2LoP-3" value="Название nvarchar(50)" style="text;strokeColor=none;fillColor=none;align=left;verticalAlign=middle;spacingLeft=4;spacingRight=4;overflow=hidden;points=[[0,0.5],[1,0.5]];portConstraint=eastwest;rotatable=0;whiteSpace=wrap;html=1;" parent="h28ZoQ1r3luXA5jQ2LoP-1" vertex="1">
          <mxGeometry y="60" width="200" height="30" as="geometry" />
        </mxCell>
        <mxCell id="h28ZoQ1r3luXA5jQ2LoP-7" value="Жанр фильма" style="swimlane;fontStyle=0;childLayout=stackLayout;horizontal=1;startSize=30;horizontalStack=0;resizeParent=1;resizeParentMax=0;resizeLast=0;collapsible=1;marginBottom=0;whiteSpace=wrap;html=1;" parent="1" vertex="1">
          <mxGeometry x="-694" y="600" width="200" height="90" as="geometry" />
        </mxCell>
        <mxCell id="h28ZoQ1r3luXA5jQ2LoP-8" value="Код фильма (PK, FK1) int" style="text;strokeColor=none;fillColor=none;align=left;verticalAlign=middle;spacingLeft=4;spacingRight=4;overflow=hidden;points=[[0,0.5],[1,0.5]];portConstraint=eastwest;rotatable=0;whiteSpace=wrap;html=1;" parent="h28ZoQ1r3luXA5jQ2LoP-7" vertex="1">
          <mxGeometry y="30" width="200" height="30" as="geometry" />
        </mxCell>
        <mxCell id="h28ZoQ1r3luXA5jQ2LoP-9" value="Код жанра (PK, FK2) int" style="text;strokeColor=none;fillColor=none;align=left;verticalAlign=middle;spacingLeft=4;spacingRight=4;overflow=hidden;points=[[0,0.5],[1,0.5]];portConstraint=eastwest;rotatable=0;whiteSpace=wrap;html=1;" parent="h28ZoQ1r3luXA5jQ2LoP-7" vertex="1">
          <mxGeometry y="60" width="200" height="30" as="geometry" />
        </mxCell>
        <mxCell id="h28ZoQ1r3luXA5jQ2LoP-18" value="" style="fontSize=12;html=1;endArrow=ERzeroToMany;startArrow=ERmandOne;rounded=0;exitX=-0.005;exitY=0.038;exitDx=0;exitDy=0;exitPerimeter=0;endFill=0;entryX=0.999;entryY=0.707;entryDx=0;entryDy=0;entryPerimeter=0;" parent="1" source="rfza4wkIlq2GZ2fTbnun-26" target="h28ZoQ1r3luXA5jQ2LoP-8" edge="1">
          <mxGeometry width="100" height="100" relative="1" as="geometry">
            <mxPoint x="-350" y="520" as="sourcePoint" />
            <mxPoint x="-490" y="650" as="targetPoint" />
          </mxGeometry>
        </mxCell>
        <mxCell id="X0j3rr7u5MHV0aujGTxk-1" value="" style="fontSize=12;html=1;endArrow=ERzeroToMany;startArrow=ERmandOne;rounded=0;exitX=0.479;exitY=0.973;exitDx=0;exitDy=0;exitPerimeter=0;entryX=0.519;entryY=0.004;entryDx=0;entryDy=0;entryPerimeter=0;endFill=0;" parent="1" source="h28ZoQ1r3luXA5jQ2LoP-3" target="h28ZoQ1r3luXA5jQ2LoP-7" edge="1">
          <mxGeometry width="100" height="100" relative="1" as="geometry">
            <mxPoint x="-570" y="680" as="sourcePoint" />
            <mxPoint x="-470" y="580" as="targetPoint" />
          </mxGeometry>
        </mxCell>
      </root>
    </mxGraphModel>
  </diagram>
  <diagram id="O1sjiInfZACCglBmAzlQ" name="Страница — 2">
    <mxGraphModel dx="1434" dy="836" grid="1" gridSize="10" guides="1" tooltips="1" connect="1" arrows="1" fold="1" page="1" pageScale="1" pageWidth="827" pageHeight="1169" math="0" shadow="0">
      <root>
        <mxCell id="0" />
        <mxCell id="1" parent="0" />
      </root>
    </mxGraphModel>
  </diagram>
</mxfile>
